# xmcd CD database file
#
# Track frame offsets:
#	150
#	21031
#	40022
#	58885
#	81462
#	99821
#	114358
#	127713
#	151865
#	170648
#	185737
#	200462
#	223351
#	238851
#	252776
#	276795
#
# Disc length: 3899 seconds
#
# Revision: 0
# Processed by: cddbd v1.5.1PL0 Copyright (c) Steve Scherf et al.
# Submitted via: CDex 1.51
#
DISCID=dc0f3910
DTITLE=Various Artist - Cool Buzz Sampler
DYEAR=2004
DGENRE=Blues
TTITLE0=Boyd Small - Paper Bag
TTITLE1=Drippin' Honey - My Words My Eyes
TTITLE2=Sugarcane - It Tears Me Up
TTITLE3=Monti Amundsen - Prove Me Wrong
TTITLE4=Jim Wallace - Salt On My Cheek
TTITLE5=Tee - Just What It Takes
TTITLE6=T-99 - Let That Eagle Fly
TTITLE7=Cuban Heels - Cut To Pieces
TTITLE8=Drippin' Honey - Few And Far Between
TTITLE9=T-99 - So Many Times
TTITLE10=Tee - Life Ain't Funny
TTITLE11=Jim Wallace - Cold Blue Steel
TTITLE12=Monti Amundsen - Standing Next To You
TTITLE13=Boyd Small - 34th and Bell
TTITLE14=Cuban Heels - Devil's Daughter
TTITLE15=Sugarcane - Got A Heart
EXTD=YEAR: 2004
EXTT0=
EXTT1=
EXTT2=
EXTT3=
EXTT4=
EXTT5=
EXTT6=
EXTT7=
EXTT8=
EXTT9=
EXTT10=
EXTT11=
EXTT12=
EXTT13=
EXTT14=
EXTT15=
PLAYORDER=
